<svg id="visual" viewBox="0 0 960 540" width="960" height="540" xmlns="http://www.w3.org/2000/svg" xmlns:xlink="http://www.w3.org/1999/xlink" version="1.1"><rect x="0" y="0" width="960" height="540" fill="#250545"></rect><defs><linearGradient id="grad1_0" x1="43.8%" y1="0%" x2="100%" y2="100%"><stop offset="14.444444444444446%" stop-color="#5200a3" stop-opacity="1"></stop><stop offset="85.55555555555554%" stop-color="#5200a3" stop-opacity="1"></stop></linearGradient></defs><defs><linearGradient id="grad1_1" x1="43.8%" y1="0%" x2="100%" y2="100%"><stop offset="14.444444444444446%" stop-color="#5200a3" stop-opacity="1"></stop><stop offset="85.55555555555554%" stop-color="#4b0295" stop-opacity="1"></stop></linearGradient></defs><defs><linearGradient id="grad1_2" x1="43.8%" y1="0%" x2="100%" y2="100%"><stop offset="14.444444444444446%" stop-color="#450387" stop-opacity="1"></stop><stop offset="85.55555555555554%" stop-color="#4b0295" stop-opacity="1"></stop></linearGradient></defs><defs><linearGradient id="grad1_3" x1="43.8%" y1="0%" x2="100%" y2="100%"><stop offset="14.444444444444446%" stop-color="#450387" stop-opacity="1"></stop><stop offset="85.55555555555554%" stop-color="#3e0479" stop-opacity="1"></stop></linearGradient></defs><defs><linearGradient id="grad1_4" x1="43.8%" y1="0%" x2="100%" y2="100%"><stop offset="14.444444444444446%" stop-color="#38056b" stop-opacity="1"></stop><stop offset="85.55555555555554%" stop-color="#3e0479" stop-opacity="1"></stop></linearGradient></defs><defs><linearGradient id="grad1_5" x1="43.8%" y1="0%" x2="100%" y2="100%"><stop offset="14.444444444444446%" stop-color="#38056b" stop-opacity="1"></stop><stop offset="85.55555555555554%" stop-color="#32055e" stop-opacity="1"></stop></linearGradient></defs><defs><linearGradient id="grad1_6" x1="43.8%" y1="0%" x2="100%" y2="100%"><stop offset="14.444444444444446%" stop-color="#2b0551" stop-opacity="1"></stop><stop offset="85.55555555555554%" stop-color="#32055e" stop-opacity="1"></stop></linearGradient></defs><defs><linearGradient id="grad1_7" x1="43.8%" y1="0%" x2="100%" y2="100%"><stop offset="14.444444444444446%" stop-color="#2b0551" stop-opacity="1"></stop><stop offset="85.55555555555554%" stop-color="#250545" stop-opacity="1"></stop></linearGradient></defs><defs><linearGradient id="grad2_0" x1="0%" y1="0%" x2="56.3%" y2="100%"><stop offset="14.444444444444446%" stop-color="#5200a3" stop-opacity="1"></stop><stop offset="85.55555555555554%" stop-color="#5200a3" stop-opacity="1"></stop></linearGradient></defs><defs><linearGradient id="grad2_1" x1="0%" y1="0%" x2="56.3%" y2="100%"><stop offset="14.444444444444446%" stop-color="#4b0295" stop-opacity="1"></stop><stop offset="85.55555555555554%" stop-color="#5200a3" stop-opacity="1"></stop></linearGradient></defs><defs><linearGradient id="grad2_2" x1="0%" y1="0%" x2="56.3%" y2="100%"><stop offset="14.444444444444446%" stop-color="#4b0295" stop-opacity="1"></stop><stop offset="85.55555555555554%" stop-color="#450387" stop-opacity="1"></stop></linearGradient></defs><defs><linearGradient id="grad2_3" x1="0%" y1="0%" x2="56.3%" y2="100%"><stop offset="14.444444444444446%" stop-color="#3e0479" stop-opacity="1"></stop><stop offset="85.55555555555554%" stop-color="#450387" stop-opacity="1"></stop></linearGradient></defs><defs><linearGradient id="grad2_4" x1="0%" y1="0%" x2="56.3%" y2="100%"><stop offset="14.444444444444446%" stop-color="#3e0479" stop-opacity="1"></stop><stop offset="85.55555555555554%" stop-color="#38056b" stop-opacity="1"></stop></linearGradient></defs><defs><linearGradient id="grad2_5" x1="0%" y1="0%" x2="56.3%" y2="100%"><stop offset="14.444444444444446%" stop-color="#32055e" stop-opacity="1"></stop><stop offset="85.55555555555554%" stop-color="#38056b" stop-opacity="1"></stop></linearGradient></defs><defs><linearGradient id="grad2_6" x1="0%" y1="0%" x2="56.3%" y2="100%"><stop offset="14.444444444444446%" stop-color="#32055e" stop-opacity="1"></stop><stop offset="85.55555555555554%" stop-color="#2b0551" stop-opacity="1"></stop></linearGradient></defs><defs><linearGradient id="grad2_7" x1="0%" y1="0%" x2="56.3%" y2="100%"><stop offset="14.444444444444446%" stop-color="#250545" stop-opacity="1"></stop><stop offset="85.55555555555554%" stop-color="#2b0551" stop-opacity="1"></stop></linearGradient></defs><g transform="translate(960, 0)"><path d="M0 459C-48 455.6 -95.9 452.2 -141.8 436.5C-187.8 420.9 -231.7 393 -257.4 354.3C-283.2 315.7 -290.9 266.3 -316.3 229.8C-341.8 193.4 -385.1 169.9 -411.8 133.8C-438.6 97.7 -448.8 48.8 -459 0L0 0Z" fill="#28054b"></path><path d="M0 401.6C-42 398.6 -83.9 395.7 -124.1 382C-164.3 368.3 -202.7 343.9 -225.3 310.1C-247.8 276.2 -254.5 233 -276.8 201.1C-299.1 169.2 -336.9 148.7 -360.3 117.1C-383.7 85.5 -392.7 42.7 -401.6 0L0 0Z" fill="#2e0558"></path><path d="M0 344.3C-36 341.7 -71.9 339.1 -106.4 327.4C-140.8 315.7 -173.8 294.8 -193.1 265.8C-212.4 236.8 -218.2 199.7 -237.2 172.4C-256.3 145 -288.8 127.5 -308.9 100.4C-328.9 73.2 -336.6 36.6 -344.2 0L0 0Z" fill="#350565"></path><path d="M0 286.9C-30 284.7 -59.9 282.6 -88.6 272.8C-117.4 263.1 -144.8 245.6 -160.9 221.5C-177 197.3 -181.8 166.4 -197.7 143.6C-213.6 120.9 -240.7 106.2 -257.4 83.6C-274.1 61 -280.5 30.5 -286.9 0L0 0Z" fill="#3b0472"></path><path d="M0 229.5C-24 227.8 -48 226.1 -70.9 218.3C-93.9 210.4 -115.8 196.5 -128.7 177.2C-141.6 157.8 -145.4 133.1 -158.2 114.9C-170.9 96.7 -192.5 85 -205.9 66.9C-219.3 48.8 -224.4 24.4 -229.5 0L0 0Z" fill="#420380"></path><path d="M0 172.1C-18 170.8 -36 169.6 -53.2 163.7C-70.4 157.8 -86.9 147.4 -96.5 132.9C-106.2 118.4 -109.1 99.8 -118.6 86.2C-128.2 72.5 -144.4 63.7 -154.4 50.2C-164.5 36.6 -168.3 18.3 -172.1 0L0 0Z" fill="#48028e"></path><path d="M0 114.8C-12 113.9 -24 113 -35.5 109.1C-46.9 105.2 -57.9 98.3 -64.4 88.6C-70.8 78.9 -72.7 66.6 -79.1 57.5C-85.4 48.3 -96.3 42.5 -103 33.5C-109.6 24.4 -112.2 12.2 -114.7 0L0 0Z" fill="#4f019c"></path><path d="M0 57.4C-6 56.9 -12 56.5 -17.7 54.6C-23.5 52.6 -29 49.1 -32.2 44.3C-35.4 39.5 -36.4 33.3 -39.5 28.7C-42.7 24.2 -48.1 21.2 -51.5 16.7C-54.8 12.2 -56.1 6.1 -57.4 0L0 0Z" fill="#5200a3"></path></g><g transform="translate(0, 540)"><path d="M0 -459C38.5 -411.2 76.9 -363.5 109.1 -335.7C141.2 -308 167.1 -300.2 216.3 -297.7C265.5 -295.2 338.2 -298.1 371.3 -269.8C404.5 -241.5 398.1 -182.1 406.1 -132C414.1 -81.8 436.6 -40.9 459 0L0 0Z" fill="#28054b"></path><path d="M0 -401.6C33.7 -359.8 67.3 -318.1 95.4 -293.8C123.6 -269.5 146.2 -262.7 189.3 -260.5C232.4 -258.3 295.9 -260.8 324.9 -236.1C353.9 -211.3 348.3 -159.3 355.3 -115.5C362.4 -71.6 382 -35.8 401.6 0L0 0Z" fill="#2e0558"></path><path d="M0 -344.2C28.9 -308.4 57.7 -272.6 81.8 -251.8C105.9 -231 125.3 -225.1 162.2 -223.3C199.2 -221.4 253.7 -223.6 278.5 -202.3C303.4 -181.1 298.6 -136.6 304.6 -99C310.6 -61.3 327.4 -30.7 344.3 0L0 0Z" fill="#350565"></path><path d="M0 -286.9C24 -257 48.1 -227.2 68.2 -209.8C88.3 -192.5 104.4 -187.6 135.2 -186.1C166 -184.5 211.4 -186.3 232.1 -168.6C252.8 -150.9 248.8 -113.8 253.8 -82.5C258.8 -51.1 272.9 -25.6 286.9 0L0 0Z" fill="#3b0472"></path><path d="M0 -229.5C19.2 -205.6 38.5 -181.7 54.5 -167.9C70.6 -154 83.5 -150.1 108.2 -148.9C132.8 -147.6 169.1 -149 185.7 -134.9C202.2 -120.8 199 -91.1 203.1 -66C207.1 -40.9 218.3 -20.4 229.5 0L0 0Z" fill="#420380"></path><path d="M0 -172.1C14.4 -154.2 28.9 -136.3 40.9 -125.9C53 -115.5 62.6 -112.6 81.1 -111.6C99.6 -110.7 126.8 -111.8 139.3 -101.2C151.7 -90.6 149.3 -68.3 152.3 -49.5C155.3 -30.7 163.7 -15.3 172.1 0L0 0Z" fill="#48028e"></path><path d="M0 -114.7C9.6 -102.8 19.2 -90.9 27.3 -83.9C35.3 -77 41.8 -75 54.1 -74.4C66.4 -73.8 84.6 -74.5 92.8 -67.4C101.1 -60.4 99.5 -45.5 101.5 -33C103.5 -20.4 109.1 -10.2 114.8 0L0 0Z" fill="#4f019c"></path><path d="M0 -57.4C4.8 -51.4 9.6 -45.4 13.6 -42C17.7 -38.5 20.9 -37.5 27 -37.2C33.2 -36.9 42.3 -37.3 46.4 -33.7C50.6 -30.2 49.8 -22.8 50.8 -16.5C51.8 -10.2 54.6 -5.1 57.4 0L0 0Z" fill="#5200a3"></path></g></svg>