<?xml version="1.0" encoding="UTF-8" standalone="no" ?>
<!DOCTYPE svg PUBLIC "-//W3C//DTD SVG 1.1//EN" "http://www.w3.org/Graphics/SVG/1.1/DTD/svg11.dtd">
<svg xmlns="http://www.w3.org/2000/svg" xmlns:xlink="http://www.w3.org/1999/xlink" version="1.1" width="640" height="480" viewBox="0 0 640 480" xml:space="preserve">
<desc>Created with Fabric.js 3.6.6</desc>
<defs>
</defs>
<g transform="matrix(1 0 0 1 321.3 308.19)"  >
<g style=""   >
		<g transform="matrix(0.13 0 0 -0.13 0 -103.23)"  >
<path style="stroke: none; stroke-width: 1; stroke-dasharray: none; stroke-linecap: butt; stroke-dashoffset: 0; stroke-linejoin: miter; stroke-miterlimit: 4; fill: rgb(0,0,0); fill-rule: nonzero; opacity: 1;"  transform=" translate(-2500, -3274.25)" d="M 2060 4244 c -6 -14 -10 -61 -10 -105 l 0 -79 l -114 0 c -101 0 -117 -2 -146 -22 c -66 -45 -75 -67 -78 -199 l -4 -119 l -87 0 c -72 0 -91 -3 -104 -18 c -22 -24 -21 -45 1 -65 c 14 -13 39 -17 105 -17 l 87 0 l 0 -80 l 0 -80 l -84 0 c -67 0 -88 -4 -107 -19 c -20 -16 -22 -23 -14 -47 c 10 -29 11 -29 108 -32 l 97 -3 l 0 -79 l 0 -80 l -85 0 c -72 0 -88 -3 -105 -20 c -11 -11 -20 -27 -20 -35 c 0 -8 9 -24 20 -35 c 17 -17 33 -20 105 -20 l 85 0 l 0 -80 l 0 -80 l -95 0 c -83 0 -96 -2 -105 -19 c -14 -28 -13 -38 10 -61 c 17 -17 33 -20 104 -20 l 84 0 l 3 -118 c 4 -113 5 -120 33 -156 c 41 -54 77 -66 201 -66 l 105 0 l 0 -77 c 0 -91 14 -127 52 -131 c 43 -5 58 28 58 125 l 0 83 l 80 0 l 79 0 l 3 -97 c 3 -96 3 -98 30 -107 c 22 -8 32 -6 48 9 c 17 16 20 30 20 107 l 0 88 l 80 0 l 80 0 l 0 -89 c 0 -112 22 -142 81 -111 c 17 9 19 22 19 105 l 0 95 l 80 0 l 80 0 l 0 -83 c 0 -97 15 -130 58 -125 c 38 4 52 40 52 131 l 0 77 l 105 0 c 124 0 160 12 201 66 c 28 36 29 43 33 156 l 3 118 l 84 0 c 71 0 87 3 104 20 c 24 24 25 43 4 64 c -12 12 -37 16 -105 16 l -89 0 l 0 80 l 0 80 l 85 0 c 72 0 88 3 105 20 c 11 11 20 27 20 35 c 0 8 -9 24 -20 35 c -17 17 -33 20 -105 20 l -85 0 l 0 80 l 0 80 l 89 0 c 68 0 93 4 105 16 c 21 21 20 40 -4 64 c -17 17 -33 20 -105 20 l -85 0 l 0 80 l 0 80 l 88 0 c 73 0 92 3 105 18 c 22 24 21 45 -1 65 c -14 13 -39 17 -104 17 l -86 0 l -3 119 c -4 132 -13 154 -79 199 c -29 20 -45 22 -145 22 l -113 0 l -4 96 c -4 103 -10 114 -60 114 c -38 0 -48 -25 -48 -125 l 0 -86 l -77 3 l -78 3 l -3 89 c -3 98 -11 116 -51 116 c -44 0 -51 -16 -51 -117 l 0 -93 l -80 0 l -80 0 l 0 86 c 0 47 -5 94 -10 105 c -12 22 -62 26 -78 6 c -6 -7 -12 -53 -14 -103 l -3 -89 l -77 -3 l -78 -3 l 0 80 c 0 108 -10 131 -55 131 c -29 0 -37 -5 -45 -26 z m 1115 -308 c 14 -20 15 -101 13 -670 c -3 -628 -4 -648 -22 -662 c -17 -12 -124 -14 -668 -14 c -635 0 -648 0 -668 20 c -20 20 -20 33 -20 663 c 0 565 2 645 16 665 l 15 22 l 659 0 l 660 0 l 15 -24 z" stroke-linecap="round" />
</g>
		<g transform="matrix(0.13 0 0 -0.13 0 -103.33)"  >
<path style="stroke: none; stroke-width: 1; stroke-dasharray: none; stroke-linecap: butt; stroke-dashoffset: 0; stroke-linejoin: miter; stroke-miterlimit: 4; fill: rgb(0,0,0); fill-rule: nonzero; opacity: 1;"  transform=" translate(-2500, -3275)" d="M 2046 3734 c -14 -14 -16 -69 -16 -459 l 0 -444 l 22 -15 c 19 -14 79 -16 448 -16 c 369 0 429 2 448 16 l 22 15 l 0 443 c 0 416 -1 444 -18 459 c -17 15 -63 17 -455 17 c -383 0 -437 -2 -451 -16 z m 824 -454 l 0 -370 l -370 0 l -370 0 l 0 370 l 0 370 l 370 0 l 370 0 l 0 -370 z" stroke-linecap="round" />
</g>
		<g transform="matrix(0.13 0 0 -0.13 -163.92 59.96)"  >
<path style="stroke: none; stroke-width: 1; stroke-dasharray: none; stroke-linecap: butt; stroke-dashoffset: 0; stroke-linejoin: miter; stroke-miterlimit: 4; fill: rgb(0,0,0); fill-rule: nonzero; opacity: 1;"  transform=" translate(-1270.61, -2050.28)" d="M 1298 2078 l -3 -133 l -25 0 c -18 0 -26 6 -28 23 c -3 16 -10 22 -29 22 c -24 0 -25 -2 -18 -37 c 3 -21 14 -44 23 -50 c 22 -18 83 -16 110 3 c 21 14 22 22 22 160 l 0 144 l -25 0 l -24 0 l -3 -132 z" stroke-linecap="round" />
</g>
		<g transform="matrix(0.13 0 0 -0.13 -5.8 60.13)"  >
<path style="stroke: none; stroke-width: 1; stroke-dasharray: none; stroke-linecap: butt; stroke-dashoffset: 0; stroke-linejoin: miter; stroke-miterlimit: 4; fill: rgb(0,0,0); fill-rule: nonzero; opacity: 1;"  transform=" translate(-2456.53, -2049.01)" d="M 2365 2188 c 15 -65 65 -291 65 -294 c 0 -14 50 -1 54 14 c 6 20 66 289 66 297 c 0 3 -11 5 -24 5 c -21 0 -25 -7 -40 -87 c -20 -101 -26 -126 -32 -121 c -2 3 -11 40 -19 84 c -9 43 -18 89 -21 102 c -3 16 -12 22 -29 22 c -21 0 -25 -4 -20 -22 z" stroke-linecap="round" />
</g>
		<g transform="matrix(0.13 0 0 -0.13 35.27 60)"  >
<path style="stroke: none; stroke-width: 1; stroke-dasharray: none; stroke-linecap: butt; stroke-dashoffset: 0; stroke-linejoin: miter; stroke-miterlimit: 4; fill: rgb(0,0,0); fill-rule: nonzero; opacity: 1;"  transform=" translate(-2764.5, -2050)" d="M 2690 2050 l 0 -160 l 59 0 c 87 0 90 5 90 160 c 0 155 -3 160 -90 160 l -59 0 l 0 -160 z m 98 68 c -2 -36 -7 -44 -25 -46 c -21 -3 -23 1 -23 42 c 0 43 2 46 26 46 c 23 0 25 -3 22 -42 z m 0 -135 c 3 -40 1 -43 -22 -43 c -24 0 -26 3 -26 46 c 0 41 2 45 23 42 c 18 -2 23 -10 25 -45 z" stroke-linecap="round" />
</g>
		<g transform="matrix(0.13 0 0 -0.13 -137.29 62.64)"  >
<path style="stroke: none; stroke-width: 1; stroke-dasharray: none; stroke-linecap: butt; stroke-dashoffset: 0; stroke-linejoin: miter; stroke-miterlimit: 4; fill: rgb(0,0,0); fill-rule: nonzero; opacity: 1;"  transform=" translate(-1470.34, -2030.18)" d="M 1394 2155 c -4 -8 -4 -65 -2 -126 c 3 -95 6 -113 23 -125 c 25 -19 85 -18 113 2 c 21 14 22 22 22 140 l 0 124 l -25 0 c -24 0 -24 0 -27 -112 c -3 -101 -5 -113 -22 -116 c -29 -6 -36 16 -36 126 c 0 96 -1 102 -20 102 c -11 0 -23 -7 -26 -15 z" stroke-linecap="round" />
</g>
		<g transform="matrix(0.13 0 0 -0.13 -111.89 62.61)"  >
<path style="stroke: none; stroke-width: 1; stroke-dasharray: none; stroke-linecap: butt; stroke-dashoffset: 0; stroke-linejoin: miter; stroke-miterlimit: 4; fill: rgb(0,0,0); fill-rule: nonzero; opacity: 1;"  transform=" translate(-1660.8, -2030.4)" d="M 1594 2157 c -2 -7 -3 -69 -2 -138 l 3 -124 l 68 -3 c 66 -3 67 -2 67 22 c 0 22 -5 25 -42 28 l -43 3 l -3 113 c -2 104 -4 112 -23 112 c -11 0 -22 -6 -25 -13 z" stroke-linecap="round" />
</g>
		<g transform="matrix(0.13 0 0 -0.13 -93.89 62.58)"  >
<path style="stroke: none; stroke-width: 1; stroke-dasharray: none; stroke-linecap: butt; stroke-dashoffset: 0; stroke-linejoin: miter; stroke-miterlimit: 4; fill: rgb(0,0,0); fill-rule: nonzero; opacity: 1;"  transform=" translate(-1795.8, -2030.64)" d="M 1774 2157 c -2 -7 -3 -69 -2 -138 c 3 -120 4 -124 26 -127 c 22 -3 22 -3 22 137 c 0 135 -1 141 -20 141 c -11 0 -23 -6 -26 -13 z" stroke-linecap="round" />
</g>
		<g transform="matrix(0.13 0 0 -0.13 -73.67 62.64)"  >
<path style="stroke: none; stroke-width: 1; stroke-dasharray: none; stroke-linecap: butt; stroke-dashoffset: 0; stroke-linejoin: miter; stroke-miterlimit: 4; fill: rgb(0,0,0); fill-rule: nonzero; opacity: 1;"  transform=" translate(-1947.5, -2030.18)" d="M 1870 2046 c 0 -118 1 -126 22 -140 c 28 -20 88 -21 114 -2 c 17 13 19 27 19 138 c 0 119 -1 123 -22 126 c -22 3 -22 1 -25 -110 l -3 -113 l -25 0 l -25 0 l -3 113 c -3 112 -3 112 -27 112 l -25 0 l 0 -124 z" stroke-linecap="round" />
</g>
		<g transform="matrix(0.13 0 0 -0.13 -46.76 62.69)"  >
<path style="stroke: none; stroke-width: 1; stroke-dasharray: none; stroke-linecap: butt; stroke-dashoffset: 0; stroke-linejoin: miter; stroke-miterlimit: 4; fill: rgb(0,0,0); fill-rule: nonzero; opacity: 1;"  transform=" translate(-2149.28, -2029.8)" d="M 2092 2154 c -18 -12 -22 -25 -22 -68 l 0 -52 l 56 -18 c 50 -16 55 -20 52 -44 c -2 -21 -9 -28 -30 -30 c -23 -3 -28 1 -28 17 c 0 16 -6 21 -25 21 c -21 0 -25 -5 -25 -29 c 0 -37 31 -61 78 -61 c 52 0 70 15 77 64 c 10 65 1 80 -53 97 c -39 12 -48 19 -50 42 c -3 23 0 27 23 27 c 19 0 29 -6 32 -21 c 4 -14 12 -19 27 -17 c 17 2 20 9 18 33 c -2 17 -10 36 -19 43 c -23 17 -84 15 -111 -4 z" stroke-linecap="round" />
</g>
		<g transform="matrix(0.13 0 0 -0.13 62 62.67)"  >
<path style="stroke: none; stroke-width: 1; stroke-dasharray: none; stroke-linecap: butt; stroke-dashoffset: 0; stroke-linejoin: miter; stroke-miterlimit: 4; fill: rgb(0,0,0); fill-rule: nonzero; opacity: 1;"  transform=" translate(-2965, -2030)" d="M 2890 2046 c 0 -145 6 -156 75 -156 c 70 0 75 11 75 156 c 0 124 0 125 -22 122 c -22 -3 -23 -7 -26 -115 c -3 -113 -3 -113 -27 -113 l -25 0 l 0 115 l 0 115 l -25 0 l -25 0 l 0 -124 z" stroke-linecap="round" />
</g>
		<g transform="matrix(0.13 0 0 -0.13 88.67 62.67)"  >
<path style="stroke: none; stroke-width: 1; stroke-dasharray: none; stroke-linecap: butt; stroke-dashoffset: 0; stroke-linejoin: miter; stroke-miterlimit: 4; fill: rgb(0,0,0); fill-rule: nonzero; opacity: 1;"  transform=" translate(-3165, -2030)" d="M 3090 2030 c 0 -132 1 -140 19 -140 c 16 0 20 8 23 43 c 2 34 7 42 23 42 c 15 0 22 -10 29 -42 c 7 -36 13 -43 32 -43 c 27 0 28 1 13 54 c -8 27 -8 41 0 49 c 6 6 11 41 11 78 c 0 87 -11 99 -91 99 l -59 0 l 0 -140 z m 106 66 c 8 -33 2 -57 -17 -69 c -29 -18 -49 -1 -49 41 c 0 45 5 52 36 52 c 17 0 25 -7 30 -24 z" stroke-linecap="round" />
</g>
		<g transform="matrix(0.13 0 0 -0.13 114 62.67)"  >
<path style="stroke: none; stroke-width: 1; stroke-dasharray: none; stroke-linecap: butt; stroke-dashoffset: 0; stroke-linejoin: miter; stroke-miterlimit: 4; fill: rgb(0,0,0); fill-rule: nonzero; opacity: 1;"  transform=" translate(-3355, -2030)" d="M 3290 2030 l 0 -140 l 65 0 c 63 0 65 1 65 25 c 0 23 -4 25 -40 25 l -40 0 l 0 115 l 0 115 l -25 0 l -25 0 l 0 -140 z" stroke-linecap="round" />
</g>
		<g transform="matrix(0.13 0 0 -0.13 139.33 62.67)"  >
<path style="stroke: none; stroke-width: 1; stroke-dasharray: none; stroke-linecap: butt; stroke-dashoffset: 0; stroke-linejoin: miter; stroke-miterlimit: 4; fill: rgb(0,0,0); fill-rule: nonzero; opacity: 1;"  transform=" translate(-3545, -2030)" d="M 3470 2030 l 0 -140 l 75 0 c 73 0 75 1 75 25 c 0 23 -3 25 -50 25 c -49 0 -50 1 -50 30 c 0 28 2 30 40 30 c 36 0 40 3 40 25 c 0 23 -4 25 -40 25 c -39 0 -40 1 -40 35 l 0 35 l 50 0 c 47 0 50 2 50 25 c 0 24 -2 25 -75 25 l -75 0 l 0 -140 z" stroke-linecap="round" />
</g>
		<g transform="matrix(0.13 0 0 -0.13 164.67 62.67)"  >
<path style="stroke: none; stroke-width: 1; stroke-dasharray: none; stroke-linecap: butt; stroke-dashoffset: 0; stroke-linejoin: miter; stroke-miterlimit: 4; fill: rgb(0,0,0); fill-rule: nonzero; opacity: 1;"  transform=" translate(-3735, -2030)" d="M 3660 2145 c 0 -20 5 -25 25 -25 l 25 0 l 0 -115 l 0 -115 l 25 0 l 25 0 l 0 115 l 0 115 l 25 0 c 20 0 25 5 25 25 c 0 24 -2 25 -75 25 c -73 0 -75 -1 -75 -25 z" stroke-linecap="round" />
</g>
</g>
</g>
</svg>