<?xml version="1.0" ?><svg enable-background="new 0 0 512 512" id="Layer_1" version="1.1" viewBox="0 0 512 512" xml:space="preserve" xmlns="http://www.w3.org/2000/svg" xmlns:xlink="http://www.w3.org/1999/xlink"><g><g><linearGradient gradientUnits="userSpaceOnUse" id="SVGID_1_" x1="0.0000038" x2="512" y1="256" y2="256"><stop offset="0" style="stop-color:#FFCA05"/><stop offset="1" style="stop-color:#FAAC18"/></linearGradient><circle cx="256" cy="256" fill="url(#SVGID_1_)" r="256"/><linearGradient gradientUnits="userSpaceOnUse" id="SVGID_2_" x1="42.6666679" x2="469.3333435" y1="256.0005188" y2="256.0005188"><stop offset="0" style="stop-color:#FAAC18"/><stop offset="1" style="stop-color:#FFCA05"/></linearGradient><path d="M256,469.3338623c-117.6314697,0-213.3333282-95.7018738-213.3333282-213.3333435    S138.3685303,42.6671982,256,42.6671982c117.636261,0,213.3333435,95.7018661,213.3333435,213.333313    S373.636261,469.3338623,256,469.3338623z" fill="url(#SVGID_2_)"/></g><g><polygon opacity="0.3" points="178.1141357,176.1791992 160.4298706,176.1791992 160.4298706,185.7792053     178.1141357,185.7792053 178.1141357,217.6992035 160.4298706,217.6992035 160.4298706,227.2991943 178.1141357,227.2991943     178.1141357,259.2207947 160.4298706,259.2207947 160.4298706,268.8208008 178.1141357,268.8208008 178.1141357,300.7402649     160.4298706,300.7402649 160.4298706,310.340271 178.1141357,310.340271 178.1141357,342.2623901 160.4298706,342.2623901     160.4298706,351.8623962 178.1141357,351.8623962 178.1141357,384 216.9498596,384 216.9498596,144 178.1141357,144   "/><path d="M226.5498657,144v240h141.0202637V144H226.5498657z M338.7995605,224.3274689h-93.5999908v-31.9370728    h93.5999908V224.3274689z" opacity="0.3"/></g><g><polygon fill="#FFFFFF" points="170.1141357,168.1791992 152.4298706,168.1791992 152.4298706,177.7792053     170.1141357,177.7792053 170.1141357,209.6992035 152.4298706,209.6992035 152.4298706,219.2991943 170.1141357,219.2991943     170.1141357,251.2207947 152.4298706,251.2207947 152.4298706,260.8208008 170.1141357,260.8208008 170.1141357,292.7402649     152.4298706,292.7402649 152.4298706,302.340271 170.1141357,302.340271 170.1141357,334.2623901 152.4298706,334.2623901     152.4298706,343.8623962 170.1141357,343.8623962 170.1141357,376 208.9498749,376 208.9498749,136 170.1141357,136   "/><path d="M218.5498657,136v240h141.0202637V136H218.5498657z M330.7995605,216.3274689h-93.5999908v-31.9370728    h93.5999908V216.3274689z" fill="#FFFFFF"/></g></g></svg>