<?xml version="1.0" standalone="no"?>
<!DOCTYPE svg PUBLIC "-//W3C//DTD SVG 20010904//EN"
 "http://www.w3.org/TR/2001/REC-SVG-20010904/DTD/svg10.dtd">
<svg version="1.0" xmlns="http://www.w3.org/2000/svg"
 width="500.000000pt" height="500.000000pt" viewBox="0 0 500.000000 500.000000"
 preserveAspectRatio="xMidYMid meet">

<g transform="translate(0.000000,500.000000) scale(0.100000,-0.100000)"
fill="#000000" stroke="none">
<path d="M2060 4244 c-6 -14 -10 -61 -10 -105 l0 -79 -114 0 c-101 0 -117 -2
-146 -22 -66 -45 -75 -67 -78 -199 l-4 -119 -87 0 c-72 0 -91 -3 -104 -18 -22
-24 -21 -45 1 -65 14 -13 39 -17 105 -17 l87 0 0 -80 0 -80 -84 0 c-67 0 -88
-4 -107 -19 -20 -16 -22 -23 -14 -47 10 -29 11 -29 108 -32 l97 -3 0 -79 0
-80 -85 0 c-72 0 -88 -3 -105 -20 -11 -11 -20 -27 -20 -35 0 -8 9 -24 20 -35
17 -17 33 -20 105 -20 l85 0 0 -80 0 -80 -95 0 c-83 0 -96 -2 -105 -19 -14
-28 -13 -38 10 -61 17 -17 33 -20 104 -20 l84 0 3 -118 c4 -113 5 -120 33
-156 41 -54 77 -66 201 -66 l105 0 0 -77 c0 -91 14 -127 52 -131 43 -5 58 28
58 125 l0 83 80 0 79 0 3 -97 c3 -96 3 -98 30 -107 22 -8 32 -6 48 9 17 16 20
30 20 107 l0 88 80 0 80 0 0 -89 c0 -112 22 -142 81 -111 17 9 19 22 19 105
l0 95 80 0 80 0 0 -83 c0 -97 15 -130 58 -125 38 4 52 40 52 131 l0 77 105 0
c124 0 160 12 201 66 28 36 29 43 33 156 l3 118 84 0 c71 0 87 3 104 20 24 24
25 43 4 64 -12 12 -37 16 -105 16 l-89 0 0 80 0 80 85 0 c72 0 88 3 105 20 11
11 20 27 20 35 0 8 -9 24 -20 35 -17 17 -33 20 -105 20 l-85 0 0 80 0 80 89 0
c68 0 93 4 105 16 21 21 20 40 -4 64 -17 17 -33 20 -105 20 l-85 0 0 80 0 80
88 0 c73 0 92 3 105 18 22 24 21 45 -1 65 -14 13 -39 17 -104 17 l-86 0 -3
119 c-4 132 -13 154 -79 199 -29 20 -45 22 -145 22 l-113 0 -4 96 c-4 103 -10
114 -60 114 -38 0 -48 -25 -48 -125 l0 -86 -77 3 -78 3 -3 89 c-3 98 -11 116
-51 116 -44 0 -51 -16 -51 -117 l0 -93 -80 0 -80 0 0 86 c0 47 -5 94 -10 105
-12 22 -62 26 -78 6 -6 -7 -12 -53 -14 -103 l-3 -89 -77 -3 -78 -3 0 80 c0
108 -10 131 -55 131 -29 0 -37 -5 -45 -26z m1115 -308 c14 -20 15 -101 13
-670 -3 -628 -4 -648 -22 -662 -17 -12 -124 -14 -668 -14 -635 0 -648 0 -668
20 -20 20 -20 33 -20 663 0 565 2 645 16 665 l15 22 659 0 660 0 15 -24z"/>
<path d="M2046 3734 c-14 -14 -16 -69 -16 -459 l0 -444 22 -15 c19 -14 79 -16
448 -16 369 0 429 2 448 16 l22 15 0 443 c0 416 -1 444 -18 459 -17 15 -63 17
-455 17 -383 0 -437 -2 -451 -16z m824 -454 l0 -370 -370 0 -370 0 0 370 0
370 370 0 370 0 0 -370z"/>
<path d="M1298 2078 l-3 -133 -25 0 c-18 0 -26 6 -28 23 -3 16 -10 22 -29 22
-24 0 -25 -2 -18 -37 3 -21 14 -44 23 -50 22 -18 83 -16 110 3 21 14 22 22 22
160 l0 144 -25 0 -24 0 -3 -132z"/>
<path d="M2365 2188 c15 -65 65 -291 65 -294 0 -14 50 -1 54 14 6 20 66 289
66 297 0 3 -11 5 -24 5 -21 0 -25 -7 -40 -87 -20 -101 -26 -126 -32 -121 -2 3
-11 40 -19 84 -9 43 -18 89 -21 102 -3 16 -12 22 -29 22 -21 0 -25 -4 -20 -22z"/>
<path d="M2690 2050 l0 -160 59 0 c87 0 90 5 90 160 0 155 -3 160 -90 160
l-59 0 0 -160z m98 68 c-2 -36 -7 -44 -25 -46 -21 -3 -23 1 -23 42 0 43 2 46
26 46 23 0 25 -3 22 -42z m0 -135 c3 -40 1 -43 -22 -43 -24 0 -26 3 -26 46 0
41 2 45 23 42 18 -2 23 -10 25 -45z"/>
<path d="M1394 2155 c-4 -8 -4 -65 -2 -126 3 -95 6 -113 23 -125 25 -19 85
-18 113 2 21 14 22 22 22 140 l0 124 -25 0 c-24 0 -24 0 -27 -112 -3 -101 -5
-113 -22 -116 -29 -6 -36 16 -36 126 0 96 -1 102 -20 102 -11 0 -23 -7 -26
-15z"/>
<path d="M1594 2157 c-2 -7 -3 -69 -2 -138 l3 -124 68 -3 c66 -3 67 -2 67 22
0 22 -5 25 -42 28 l-43 3 -3 113 c-2 104 -4 112 -23 112 -11 0 -22 -6 -25 -13z"/>
<path d="M1774 2157 c-2 -7 -3 -69 -2 -138 3 -120 4 -124 26 -127 22 -3 22 -3
22 137 0 135 -1 141 -20 141 -11 0 -23 -6 -26 -13z"/>
<path d="M1870 2046 c0 -118 1 -126 22 -140 28 -20 88 -21 114 -2 17 13 19 27
19 138 0 119 -1 123 -22 126 -22 3 -22 1 -25 -110 l-3 -113 -25 0 -25 0 -3
113 c-3 112 -3 112 -27 112 l-25 0 0 -124z"/>
<path d="M2092 2154 c-18 -12 -22 -25 -22 -68 l0 -52 56 -18 c50 -16 55 -20
52 -44 -2 -21 -9 -28 -30 -30 -23 -3 -28 1 -28 17 0 16 -6 21 -25 21 -21 0
-25 -5 -25 -29 0 -37 31 -61 78 -61 52 0 70 15 77 64 10 65 1 80 -53 97 -39
12 -48 19 -50 42 -3 23 0 27 23 27 19 0 29 -6 32 -21 4 -14 12 -19 27 -17 17
2 20 9 18 33 -2 17 -10 36 -19 43 -23 17 -84 15 -111 -4z"/>
<path d="M2890 2046 c0 -145 6 -156 75 -156 70 0 75 11 75 156 0 124 0 125
-22 122 -22 -3 -23 -7 -26 -115 -3 -113 -3 -113 -27 -113 l-25 0 0 115 0 115
-25 0 -25 0 0 -124z"/>
<path d="M3090 2030 c0 -132 1 -140 19 -140 16 0 20 8 23 43 2 34 7 42 23 42
15 0 22 -10 29 -42 7 -36 13 -43 32 -43 27 0 28 1 13 54 -8 27 -8 41 0 49 6 6
11 41 11 78 0 87 -11 99 -91 99 l-59 0 0 -140z m106 66 c8 -33 2 -57 -17 -69
-29 -18 -49 -1 -49 41 0 45 5 52 36 52 17 0 25 -7 30 -24z"/>
<path d="M3290 2030 l0 -140 65 0 c63 0 65 1 65 25 0 23 -4 25 -40 25 l-40 0
0 115 0 115 -25 0 -25 0 0 -140z"/>
<path d="M3470 2030 l0 -140 75 0 c73 0 75 1 75 25 0 23 -3 25 -50 25 -49 0
-50 1 -50 30 0 28 2 30 40 30 36 0 40 3 40 25 0 23 -4 25 -40 25 -39 0 -40 1
-40 35 l0 35 50 0 c47 0 50 2 50 25 0 24 -2 25 -75 25 l-75 0 0 -140z"/>
<path d="M3660 2145 c0 -20 5 -25 25 -25 l25 0 0 -115 0 -115 25 0 25 0 0 115
0 115 25 0 c20 0 25 5 25 25 0 24 -2 25 -75 25 -73 0 -75 -1 -75 -25z"/>
</g>
</svg>
